<svg id="svg" version="1.1" xmlns="http://www.w3.org/2000/svg" xmlns:xlink="http://www.w3.org/1999/xlink" width="400" height="365.57863501483683" viewBox="0, 0, 400,365.57863501483683"><g id="svgg"><path id="path0" d="M102.080 93.967 C 101.864 94.470,101.569 95.364,101.427 95.954 C 101.284 96.544,100.946 97.449,100.677 97.965 C 100.408 98.481,100.186 99.273,100.185 99.726 C 100.184 100.178,100.018 100.548,99.817 100.548 C 99.616 100.548,99.452 100.878,99.452 101.280 C 99.452 101.682,99.301 102.011,99.118 102.011 C 98.935 102.011,98.668 102.710,98.525 103.565 C 98.382 104.420,98.162 105.201,98.036 105.302 C 97.707 105.564,96.841 107.866,96.626 109.049 C 96.526 109.602,96.312 110.055,96.152 110.055 C 95.991 110.055,95.748 110.713,95.612 111.517 C 95.477 112.322,95.215 112.980,95.032 112.980 C 94.848 112.980,94.698 113.391,94.698 113.894 C 94.698 114.397,94.536 114.808,94.337 114.808 C 94.138 114.808,93.870 115.466,93.742 116.271 C 93.613 117.075,93.364 117.733,93.189 117.733 C 93.014 117.733,92.870 118.144,92.870 118.647 C 92.870 119.150,92.708 119.561,92.509 119.561 C 92.310 119.561,92.042 120.219,91.914 121.024 C 91.785 121.828,91.551 122.486,91.393 122.486 C 91.235 122.486,90.995 123.144,90.859 123.949 C 90.723 124.753,90.462 125.411,90.279 125.411 C 90.095 125.411,89.945 125.823,89.945 126.325 C 89.945 126.828,89.795 127.239,89.612 127.239 C 89.428 127.239,89.167 127.898,89.031 128.702 C 88.895 129.506,88.634 130.165,88.450 130.165 C 88.267 130.165,88.117 130.475,88.117 130.854 C 88.117 131.233,87.871 132.015,87.571 132.591 C 87.270 133.167,87.024 133.916,87.022 134.256 C 87.021 134.596,86.874 134.965,86.696 135.075 C 86.518 135.185,86.261 135.865,86.126 136.587 C 85.990 137.308,85.580 138.431,85.214 139.083 C 84.848 139.735,84.426 140.822,84.278 141.499 C 84.129 142.176,83.718 143.245,83.364 143.876 C 83.010 144.506,82.602 145.557,82.459 146.210 C 82.315 146.864,81.968 147.840,81.686 148.379 C 81.405 148.919,81.174 149.730,81.172 150.183 C 81.171 150.635,81.005 151.005,80.804 151.005 C 80.603 151.005,80.439 151.335,80.439 151.737 C 80.439 152.139,80.284 152.468,80.096 152.468 C 79.907 152.468,79.641 153.208,79.506 154.113 C 79.370 155.018,79.113 155.759,78.935 155.759 C 78.756 155.759,78.611 155.987,78.611 156.265 C 78.611 156.544,78.365 157.243,78.064 157.819 C 77.444 159.010,77.331 160.878,77.879 160.878 C 78.080 160.878,78.245 160.713,78.245 160.512 C 78.245 160.270,95.242 160.146,128.505 160.146 L 178.765 160.146 179.473 159.386 C 179.863 158.968,180.290 157.902,180.423 157.018 C 180.555 156.134,180.807 155.321,180.983 155.213 C 181.158 155.105,181.414 154.114,181.552 153.011 C 181.690 151.908,181.948 151.005,182.126 151.005 C 182.304 151.005,182.450 150.594,182.450 150.091 C 182.450 149.589,182.602 149.177,182.789 149.177 C 182.976 149.177,183.241 148.272,183.380 147.166 C 183.518 146.060,183.776 145.155,183.954 145.155 C 184.132 145.155,184.278 144.744,184.278 144.241 C 184.278 143.739,184.427 143.327,184.609 143.327 C 184.791 143.327,185.054 142.505,185.192 141.499 C 185.330 140.494,185.574 139.671,185.733 139.671 C 185.892 139.671,186.135 138.766,186.273 137.660 C 186.411 136.554,186.677 135.649,186.864 135.649 C 187.050 135.649,187.203 135.238,187.203 134.735 C 187.203 134.232,187.356 133.821,187.542 133.821 C 187.729 133.821,187.995 132.916,188.133 131.810 C 188.271 130.704,188.530 129.799,188.708 129.799 C 188.886 129.799,189.031 129.420,189.031 128.958 C 189.031 128.495,189.178 127.961,189.358 127.770 C 189.663 127.446,189.934 126.456,190.931 122.029 C 191.146 121.074,191.464 120.293,191.639 120.293 C 191.813 120.293,191.956 119.891,191.956 119.400 C 191.956 118.909,192.100 118.419,192.276 118.310 C 192.452 118.201,192.796 116.521,193.041 114.576 C 193.285 112.630,193.624 110.694,193.792 110.273 C 193.960 109.851,194.616 107.779,195.248 105.667 C 197.506 98.127,198.283 95.795,198.537 95.795 C 198.780 95.795,199.858 99.043,201.266 104.022 C 201.607 105.229,202.029 106.627,202.202 107.130 C 202.375 107.633,203.034 109.771,203.665 111.883 C 204.297 113.995,204.948 116.133,205.112 116.636 C 205.275 117.139,205.693 118.537,206.039 119.744 C 206.757 122.247,208.311 127.343,208.771 128.702 C 208.941 129.205,209.593 131.344,210.220 133.455 C 212.238 140.255,212.878 142.383,213.350 143.876 C 213.604 144.680,214.334 147.066,214.971 149.177 C 215.608 151.289,216.273 153.428,216.447 153.931 C 216.622 154.433,217.109 155.996,217.530 157.404 C 217.951 158.812,218.425 160.167,218.582 160.417 C 218.807 160.773,229.940 160.890,270.677 160.965 L 322.486 161.060 322.484 159.963 C 322.483 159.360,322.236 158.395,321.936 157.819 C 321.635 157.243,321.389 156.544,321.389 156.265 C 321.389 155.987,321.225 155.759,321.024 155.759 C 320.823 155.759,320.657 155.388,320.656 154.936 C 320.655 154.484,320.408 153.642,320.107 153.066 C 319.807 152.490,319.561 151.791,319.561 151.512 C 319.561 151.233,319.415 151.005,319.237 151.005 C 319.059 151.005,318.802 150.265,318.666 149.360 C 318.531 148.455,318.283 147.715,318.117 147.715 C 317.951 147.715,317.704 147.127,317.569 146.408 C 317.434 145.688,317.014 144.549,316.636 143.876 C 316.258 143.202,315.838 142.061,315.702 141.340 C 315.567 140.619,315.311 139.938,315.132 139.828 C 314.954 139.718,314.808 139.308,314.808 138.918 C 314.808 138.528,314.658 138.208,314.475 138.208 C 314.291 138.208,314.030 137.551,313.894 136.748 C 313.759 135.944,313.497 135.194,313.314 135.081 C 313.130 134.967,312.979 134.596,312.978 134.256 C 312.976 133.916,312.730 133.167,312.429 132.591 C 312.129 132.015,311.883 131.233,311.883 130.854 C 311.883 130.475,311.733 130.165,311.550 130.165 C 311.366 130.165,311.105 129.506,310.969 128.702 C 310.833 127.898,310.572 127.239,310.388 127.239 C 310.205 127.239,310.055 126.828,310.055 126.325 C 310.055 125.823,309.905 125.411,309.721 125.411 C 309.538 125.411,309.277 124.753,309.141 123.949 C 309.005 123.144,308.744 122.486,308.560 122.486 C 308.377 122.486,308.226 122.116,308.224 121.664 C 308.223 121.211,307.976 120.370,307.676 119.794 C 307.376 119.218,307.130 118.518,307.130 118.240 C 307.130 117.961,306.984 117.733,306.806 117.733 C 306.627 117.733,306.371 116.993,306.235 116.088 C 306.099 115.183,305.834 114.442,305.645 114.442 C 305.456 114.442,305.302 114.113,305.302 113.711 C 305.302 113.309,305.156 112.980,304.978 112.980 C 304.799 112.980,304.542 112.239,304.407 111.335 C 304.271 110.430,304.020 109.689,303.849 109.689 C 303.678 109.689,303.427 109.032,303.291 108.229 C 303.155 107.425,302.894 106.675,302.710 106.562 C 302.527 106.448,302.377 106.036,302.377 105.646 C 302.377 105.255,302.227 104.936,302.043 104.936 C 301.860 104.936,301.599 104.279,301.463 103.475 C 301.327 102.672,301.066 101.922,300.882 101.808 C 300.699 101.695,300.548 101.283,300.548 100.892 C 300.548 100.502,300.398 100.183,300.215 100.183 C 300.032 100.183,299.770 99.526,299.635 98.722 C 299.499 97.919,299.238 97.169,299.054 97.055 C 298.871 96.942,298.720 96.613,298.720 96.325 C 298.720 96.036,298.452 95.182,298.125 94.427 L 297.530 93.053 200.002 93.053 L 102.474 93.053 102.080 93.967 M163.670 212.982 C 163.367 213.285,163.013 213.902,162.882 214.353 C 162.212 216.674,160.703 221.648,160.082 223.583 L 159.378 225.777 140.841 225.686 C 76.482 225.370,52.651 225.419,52.651 225.868 C 52.651 226.120,52.486 226.325,52.285 226.325 C 52.084 226.325,51.920 226.645,51.920 227.035 C 51.920 227.425,51.774 227.835,51.595 227.945 C 51.417 228.055,51.164 228.716,51.033 229.414 C 50.902 230.111,50.556 231.142,50.263 231.703 C 49.970 232.265,49.729 232.932,49.728 233.186 C 49.727 233.440,49.575 233.934,49.391 234.283 C 48.719 235.557,47.898 237.598,47.898 237.994 C 47.898 238.218,47.747 238.687,47.563 239.036 C 46.803 240.476,46.069 242.377,46.069 242.904 C 46.069 243.214,45.919 243.560,45.736 243.673 C 45.552 243.787,45.291 244.537,45.155 245.340 C 45.019 246.143,44.758 246.801,44.575 246.801 C 44.391 246.801,44.241 247.029,44.241 247.307 C 44.241 247.586,43.996 248.285,43.695 248.861 C 43.395 249.437,43.148 250.279,43.147 250.731 C 43.145 251.184,42.980 251.554,42.779 251.554 C 42.578 251.554,42.413 251.782,42.413 252.061 C 42.413 252.339,42.167 253.039,41.867 253.615 C 41.567 254.191,41.320 255.032,41.319 255.484 C 41.317 255.937,41.162 256.307,40.973 256.307 C 40.784 256.307,40.519 257.046,40.384 257.949 C 40.248 258.852,39.991 259.500,39.813 259.390 C 39.634 259.279,39.488 259.610,39.488 260.125 C 39.488 260.639,39.338 261.060,39.155 261.060 C 38.971 261.060,38.710 261.718,38.574 262.523 C 38.438 263.327,38.177 263.985,37.993 263.985 C 37.810 263.985,37.660 264.296,37.660 264.675 C 37.660 265.054,37.414 265.836,37.114 266.412 C 36.813 266.988,36.567 267.747,36.565 268.099 C 36.564 268.451,36.417 268.739,36.239 268.739 C 36.061 268.739,35.804 269.479,35.668 270.384 C 35.532 271.289,35.267 272.029,35.078 272.029 C 34.889 272.029,34.735 272.349,34.735 272.739 C 34.735 273.129,34.585 273.541,34.401 273.655 C 34.218 273.768,33.956 274.519,33.821 275.322 C 33.685 276.125,33.424 276.782,33.240 276.782 C 33.057 276.782,32.907 277.102,32.907 277.492 C 32.907 277.882,32.761 278.292,32.583 278.402 C 32.404 278.512,32.151 279.173,32.020 279.871 C 31.890 280.568,31.543 281.599,31.250 282.160 C 30.957 282.722,30.716 283.551,30.715 284.004 C 30.714 284.456,30.548 284.826,30.347 284.826 C 30.146 284.826,29.982 285.155,29.982 285.558 C 29.982 285.960,29.835 286.289,29.657 286.289 C 29.478 286.289,29.220 286.885,29.083 287.614 C 28.947 288.342,28.695 289.206,28.525 289.533 C 27.772 290.978,27.057 292.844,27.057 293.361 C 27.057 293.671,26.906 294.017,26.723 294.130 C 26.539 294.244,26.278 294.994,26.142 295.797 C 26.007 296.600,25.745 297.258,25.562 297.258 C 25.379 297.258,25.229 297.577,25.229 297.967 C 25.229 298.358,25.078 298.770,24.895 298.883 C 24.711 298.997,24.450 299.747,24.314 300.550 C 24.178 301.354,23.876 302.023,23.642 302.037 C 23.409 302.051,23.547 302.204,23.949 302.377 C 24.353 302.550,103.258 302.702,200.324 302.717 L 375.968 302.742 375.747 301.128 C 375.625 300.240,375.201 298.936,374.804 298.231 C 374.408 297.525,373.973 296.357,373.838 295.636 C 373.702 294.915,373.446 294.234,373.268 294.124 C 373.089 294.014,372.943 293.671,372.943 293.361 C 372.943 292.844,372.228 290.978,371.475 289.533 C 371.305 289.206,371.053 288.342,370.917 287.614 C 370.780 286.885,370.522 286.289,370.343 286.289 C 370.165 286.289,370.018 285.969,370.018 285.579 C 370.018 285.189,369.868 284.777,369.684 284.663 C 369.501 284.550,369.240 283.800,369.104 282.996 C 368.968 282.193,368.748 281.536,368.615 281.536 C 368.482 281.536,368.050 280.466,367.656 279.159 C 367.261 277.852,366.823 276.782,366.682 276.782 C 366.541 276.782,366.315 276.125,366.179 275.322 C 366.044 274.519,365.782 273.768,365.599 273.655 C 365.415 273.541,365.265 273.129,365.265 272.739 C 365.265 272.349,365.111 272.029,364.922 272.029 C 364.733 272.029,364.468 271.289,364.332 270.384 C 364.196 269.479,363.939 268.739,363.761 268.739 C 363.583 268.739,363.437 268.476,363.437 268.154 C 363.437 267.618,362.731 265.769,361.969 264.305 C 361.798 263.977,361.547 263.114,361.410 262.385 C 361.274 261.656,361.016 261.060,360.837 261.060 C 360.658 261.060,360.512 260.649,360.512 260.146 C 360.512 259.644,360.349 259.232,360.151 259.232 C 359.952 259.232,359.684 258.574,359.555 257.770 C 359.427 256.965,359.178 256.307,359.003 256.307 C 358.827 256.307,358.683 255.937,358.681 255.484 C 358.680 255.032,358.433 254.191,358.133 253.615 C 357.833 253.039,357.587 252.339,357.587 252.061 C 357.587 251.782,357.422 251.554,357.221 251.554 C 357.020 251.554,356.855 251.184,356.853 250.731 C 356.852 250.279,356.605 249.437,356.305 248.861 C 356.004 248.285,355.759 247.586,355.759 247.307 C 355.759 247.029,355.613 246.801,355.435 246.801 C 355.256 246.801,354.999 246.060,354.864 245.155 C 354.728 244.250,354.477 243.510,354.306 243.510 C 354.135 243.510,353.884 242.853,353.748 242.049 C 353.612 241.246,353.351 240.496,353.167 240.383 C 352.984 240.269,352.834 239.857,352.834 239.467 C 352.834 239.076,352.684 238.757,352.500 238.757 C 352.317 238.757,352.056 238.100,351.920 237.296 C 351.784 236.493,351.523 235.743,351.339 235.629 C 351.156 235.516,351.005 235.104,351.005 234.713 C 351.005 234.323,350.855 234.004,350.672 234.004 C 350.489 234.004,350.227 233.346,350.092 232.543 C 349.956 231.740,349.709 230.998,349.543 230.896 C 349.377 230.793,349.130 230.052,348.994 229.249 C 348.858 228.445,348.617 227.788,348.457 227.788 C 348.297 227.788,348.087 227.377,347.991 226.874 C 347.832 226.042,347.930 225.960,349.072 225.960 C 350.776 225.960,350.592 224.856,348.812 224.395 C 348.108 224.213,347.451 223.941,347.350 223.791 C 346.786 222.954,345.449 223.099,345.666 223.973 C 345.787 224.462,345.988 225.274,346.112 225.777 L 346.338 226.691 292.357 226.691 L 238.376 226.691 235.733 224.017 C 232.980 221.232,227.820 216.523,224.687 213.936 L 222.865 212.431 193.543 212.431 C 167.915 212.431,164.151 212.501,163.670 212.982 " stroke="none" fill="#f38334" fill-rule="evenodd"></path><path id="path1" d="M102.869 92.956 C 103.420 93.307,296.580 93.307,297.131 92.956 C 297.364 92.808,253.654 92.687,200.000 92.687 C 146.346 92.687,102.636 92.808,102.869 92.956 M197.477 98.208 C 197.267 98.970,197.161 99.659,197.241 99.740 C 197.321 99.820,197.559 99.263,197.770 98.501 C 197.980 97.739,198.086 97.050,198.006 96.970 C 197.925 96.889,197.687 97.447,197.477 98.208 M199.130 97.806 C 199.261 98.410,199.512 99.150,199.689 99.452 C 199.894 99.803,199.925 99.605,199.773 98.903 C 199.642 98.300,199.391 97.559,199.214 97.258 C 199.009 96.907,198.978 97.104,199.130 97.806 M196.553 101.123 C 196.418 101.659,196.379 102.168,196.465 102.254 C 196.551 102.340,196.732 101.972,196.866 101.436 C 197.001 100.901,197.040 100.392,196.954 100.305 C 196.868 100.219,196.687 100.587,196.553 101.123 M200.051 100.548 C 200.051 100.850,200.193 101.426,200.366 101.828 C 200.564 102.289,200.680 102.357,200.680 102.011 C 200.680 101.709,200.538 101.133,200.366 100.731 C 200.168 100.270,200.051 100.203,200.051 100.548 M195.456 104.779 C 195.321 105.315,195.282 105.824,195.368 105.910 C 195.454 105.996,195.635 105.629,195.769 105.093 C 195.904 104.557,195.943 104.048,195.857 103.962 C 195.771 103.876,195.590 104.243,195.456 104.779 M201.102 104.418 C 201.106 104.803,201.275 105.366,201.479 105.667 C 201.750 106.068,201.784 105.920,201.605 105.119 C 201.304 103.774,201.095 103.483,201.102 104.418 M194.552 107.715 C 194.056 109.513,194.312 109.769,194.881 108.044 C 195.122 107.313,195.233 106.629,195.127 106.523 C 195.021 106.417,194.762 106.953,194.552 107.715 M202.055 107.678 C 202.186 108.282,202.437 109.022,202.614 109.324 C 202.819 109.675,202.850 109.477,202.698 108.775 C 202.567 108.172,202.316 107.431,202.139 107.130 C 201.934 106.779,201.904 106.976,202.055 107.678 M193.601 110.786 C 193.464 111.219,193.434 111.655,193.535 111.755 C 193.635 111.856,193.830 111.584,193.967 111.152 C 194.104 110.719,194.134 110.283,194.034 110.183 C 193.933 110.082,193.739 110.354,193.601 110.786 M203.883 113.528 C 204.014 114.132,204.265 114.872,204.442 115.174 C 204.648 115.525,204.678 115.327,204.526 114.625 C 204.396 114.022,204.144 113.282,203.968 112.980 C 203.762 112.629,203.732 112.826,203.883 113.528 M208.637 129.250 C 208.767 129.854,209.018 130.594,209.195 130.896 C 209.401 131.247,209.431 131.049,209.279 130.347 C 209.149 129.744,208.897 129.004,208.721 128.702 C 208.515 128.351,208.485 128.549,208.637 129.250 M209.734 132.907 C 209.864 133.510,210.115 134.250,210.292 134.552 C 210.498 134.903,210.528 134.706,210.376 134.004 C 210.246 133.400,209.994 132.660,209.818 132.358 C 209.612 132.007,209.582 132.205,209.734 132.907 M213.534 145.369 C 213.537 145.754,213.707 146.316,213.911 146.618 C 214.182 147.018,214.216 146.871,214.036 146.069 C 213.736 144.725,213.526 144.433,213.534 145.369 M216.315 154.479 C 216.445 155.082,216.697 155.823,216.873 156.124 C 217.079 156.475,217.109 156.278,216.958 155.576 C 216.827 154.973,216.576 154.232,216.399 153.931 C 216.193 153.580,216.163 153.777,216.315 154.479 M217.941 159.619 C 217.831 161.339,214.967 161.256,270.384 161.153 L 321.938 161.058 270.348 160.968 L 218.759 160.878 218.362 160.055 C 218.144 159.602,217.954 159.406,217.941 159.619 M103.199 160.420 C 117.025 160.474,139.648 160.474,153.473 160.420 C 167.299 160.367,155.987 160.324,128.336 160.324 C 100.686 160.324,89.374 160.367,103.199 160.420 M224.695 213.907 C 225.491 214.578,226.842 215.790,227.697 216.598 C 228.551 217.407,229.240 217.911,229.228 217.718 C 229.202 217.329,224.359 213.066,223.677 212.833 C 223.441 212.751,223.899 213.235,224.695 213.907 M162.183 215.565 C 162.049 216.101,162.009 216.610,162.096 216.696 C 162.182 216.783,162.362 216.415,162.497 215.879 C 162.631 215.343,162.671 214.834,162.585 214.748 C 162.498 214.662,162.318 215.030,162.183 215.565 M161.280 218.501 C 161.069 219.263,160.963 219.952,161.044 220.032 C 161.124 220.112,161.362 219.555,161.572 218.793 C 161.783 218.032,161.889 217.343,161.808 217.262 C 161.728 217.182,161.490 217.739,161.280 218.501 M234.517 222.773 L 238.504 226.691 292.378 226.691 C 351.137 226.691,347.198 226.826,345.870 224.863 C 345.595 224.456,345.559 224.574,345.732 225.320 L 345.966 226.325 292.133 226.325 L 238.301 226.325 236.920 224.757 C 236.160 223.894,234.412 222.213,233.034 221.022 C 231.375 219.586,231.875 220.177,234.517 222.773 M160.183 222.157 C 159.686 223.956,159.942 224.212,160.512 222.486 C 160.753 221.756,160.864 221.071,160.758 220.965 C 160.652 220.859,160.393 221.396,160.183 222.157 M159.311 224.607 C 159.088 225.187,155.576 225.234,106.319 225.318 L 53.565 225.408 106.399 225.592 C 161.154 225.784,160.156 225.806,159.691 224.411 C 159.607 224.160,159.452 224.240,159.311 224.607 " stroke="none" fill="#6c445f" fill-rule="evenodd"></path><path id="path2" d="M137.477 0.548 C 137.477 0.850,137.340 1.097,137.172 1.097 C 137.005 1.097,136.843 1.303,136.813 1.554 C 136.623 3.134,136.252 4.388,135.973 4.388 C 135.795 4.388,135.649 4.717,135.649 5.119 C 135.649 5.521,135.495 5.850,135.306 5.850 C 135.117 5.850,134.852 6.590,134.716 7.495 C 134.580 8.400,134.323 9.141,134.145 9.141 C 133.967 9.141,133.821 9.460,133.821 9.850 C 133.821 10.241,133.671 10.653,133.487 10.766 C 133.303 10.880,133.042 11.630,132.906 12.433 C 132.771 13.237,132.524 13.894,132.358 13.894 C 132.193 13.894,131.946 14.552,131.810 15.356 C 131.674 16.161,131.413 16.819,131.229 16.819 C 131.046 16.819,130.896 17.129,130.896 17.508 C 130.896 17.888,130.650 18.669,130.350 19.245 C 130.049 19.821,129.802 20.580,129.801 20.932 C 129.800 21.284,129.634 21.572,129.433 21.572 C 129.232 21.572,129.068 21.892,129.068 22.282 C 129.068 22.672,128.889 23.102,128.670 23.237 C 128.452 23.372,128.354 23.793,128.453 24.173 C 128.552 24.552,128.484 24.863,128.302 24.863 C 128.120 24.863,127.971 25.192,127.971 25.594 C 127.971 25.996,127.825 26.325,127.646 26.325 C 127.467 26.325,127.209 26.922,127.072 27.650 C 126.936 28.379,126.684 29.243,126.514 29.570 C 125.848 30.848,125.046 32.854,125.046 33.241 C 125.046 33.465,124.900 33.934,124.723 34.283 C 123.738 36.218,123.525 36.904,123.779 37.316 C 123.962 37.612,123.913 37.681,123.640 37.512 C 123.374 37.348,123.218 37.523,123.218 37.982 C 123.218 38.385,123.067 38.807,122.884 38.920 C 122.700 39.033,122.439 39.784,122.303 40.587 C 122.167 41.390,121.906 42.048,121.723 42.048 C 121.539 42.048,121.389 42.367,121.389 42.757 C 121.389 43.148,121.239 43.560,121.056 43.673 C 120.872 43.787,120.611 44.537,120.475 45.340 C 120.339 46.143,120.113 46.801,119.972 46.801 C 119.832 46.801,119.394 47.870,118.999 49.177 C 118.604 50.484,118.168 51.554,118.030 51.554 C 117.891 51.554,117.667 52.294,117.531 53.199 C 117.395 54.104,117.139 54.845,116.960 54.845 C 116.782 54.845,116.636 55.164,116.636 55.554 C 116.636 55.945,116.469 56.367,116.265 56.494 C 116.060 56.620,115.981 56.865,116.088 57.038 C 116.195 57.212,116.115 57.457,115.911 57.583 C 115.707 57.709,115.539 58.214,115.539 58.705 C 115.539 59.196,115.394 59.598,115.216 59.598 C 115.039 59.598,114.809 59.968,114.705 60.420 C 114.488 61.366,113.810 63.285,113.103 64.955 C 112.834 65.588,112.614 66.370,112.614 66.691 C 112.614 67.013,112.450 67.276,112.249 67.276 C 112.048 67.276,111.883 67.687,111.883 68.190 C 111.883 68.693,111.733 69.104,111.550 69.104 C 111.366 69.104,111.105 69.762,110.969 70.567 C 110.833 71.371,110.590 72.029,110.430 72.029 C 110.269 72.029,110.056 72.482,109.955 73.035 C 109.741 74.215,108.875 76.520,108.547 76.782 C 108.421 76.883,108.195 77.536,108.043 78.233 C 107.892 78.930,107.638 79.753,107.480 80.061 C 106.730 81.518,106.033 83.346,106.033 83.855 C 106.033 84.164,105.868 84.519,105.667 84.644 C 105.466 84.768,105.302 85.123,105.302 85.433 C 105.302 85.742,105.073 86.514,104.793 87.148 C 103.866 89.249,103.108 91.415,103.108 91.964 C 103.108 92.440,114.711 92.505,200.041 92.505 L 296.974 92.505 296.717 91.133 C 296.576 90.379,296.341 89.598,296.195 89.397 C 296.049 89.196,295.612 88.044,295.224 86.837 C 294.836 85.631,294.429 84.561,294.320 84.461 C 294.211 84.360,293.799 83.250,293.405 81.993 C 293.010 80.736,292.564 79.707,292.413 79.707 C 292.262 79.707,292.139 79.388,292.139 78.998 C 292.139 78.607,291.982 78.191,291.789 78.072 C 291.597 77.953,291.526 77.631,291.631 77.356 C 291.737 77.081,291.647 76.748,291.433 76.615 C 291.218 76.482,291.041 76.095,291.040 75.755 C 291.039 75.415,290.792 74.666,290.491 74.090 C 290.191 73.514,289.945 72.732,289.945 72.353 C 289.945 71.974,289.795 71.664,289.612 71.664 C 289.428 71.664,289.167 71.005,289.031 70.201 C 288.895 69.397,288.634 68.739,288.450 68.739 C 288.267 68.739,288.117 68.327,288.117 67.824 C 288.117 67.322,287.967 66.910,287.784 66.910 C 287.600 66.910,287.339 66.252,287.203 65.448 C 287.067 64.644,286.806 63.985,286.622 63.985 C 286.439 63.985,286.288 63.615,286.287 63.163 C 286.285 62.710,286.039 61.869,285.738 61.293 C 285.438 60.717,285.192 60.017,285.192 59.739 C 285.192 59.460,285.027 59.232,284.826 59.232 C 284.625 59.232,284.460 58.862,284.458 58.410 C 284.457 57.957,284.210 57.116,283.910 56.540 C 283.610 55.964,283.364 55.264,283.364 54.986 C 283.364 54.707,283.199 54.479,282.998 54.479 C 282.797 54.479,282.633 54.134,282.633 53.712 C 282.633 53.289,282.401 52.426,282.119 51.792 C 281.836 51.158,281.314 49.817,280.959 48.812 C 280.603 47.806,280.191 46.819,280.043 46.618 C 279.894 46.417,279.658 45.635,279.517 44.881 C 279.376 44.127,279.114 43.510,278.936 43.510 C 278.757 43.510,278.611 43.181,278.611 42.779 C 278.611 42.377,278.467 42.048,278.292 42.048 C 278.116 42.048,277.871 41.411,277.747 40.633 C 277.622 39.856,277.273 38.745,276.971 38.165 C 276.669 37.586,276.420 36.833,276.419 36.493 C 276.418 36.153,276.252 35.773,276.051 35.649 C 275.850 35.525,275.686 35.021,275.686 34.531 C 275.686 34.040,275.523 33.638,275.324 33.638 C 275.126 33.638,274.858 32.980,274.729 32.176 C 274.600 31.371,274.352 30.713,274.176 30.713 C 274.001 30.713,273.857 30.302,273.857 29.799 C 273.857 29.296,273.695 28.885,273.496 28.885 C 273.297 28.885,273.030 28.227,272.901 27.422 C 272.772 26.618,272.545 25.960,272.395 25.960 C 272.245 25.960,272.017 25.302,271.889 24.497 C 271.760 23.693,271.492 23.035,271.294 23.035 C 271.095 23.035,270.932 22.623,270.932 22.121 C 270.932 21.618,270.789 21.207,270.613 21.207 C 270.438 21.207,270.189 20.548,270.061 19.744 C 269.932 18.940,269.664 18.282,269.466 18.282 C 269.267 18.282,269.104 17.870,269.104 17.367 C 269.104 16.865,268.961 16.453,268.785 16.453 C 268.610 16.453,268.361 15.795,268.233 14.991 C 268.104 14.186,267.836 13.528,267.637 13.528 C 267.439 13.528,267.276 13.144,267.276 12.675 C 267.276 12.206,267.153 11.699,267.002 11.548 C 266.851 11.397,266.714 11.164,266.698 11.030 C 266.583 10.089,266.044 8.775,265.774 8.775 C 265.595 8.775,265.448 8.364,265.448 7.861 C 265.448 7.358,265.274 6.947,265.061 6.947 C 264.848 6.947,264.768 6.795,264.883 6.609 C 265.087 6.278,264.407 4.384,263.954 4.022 C 263.828 3.921,263.604 3.181,263.457 2.377 C 263.309 1.572,263.019 0.708,262.811 0.457 C 262.189 -0.296,137.477 -0.205,137.477 0.548 M198.065 98.610 C 197.969 98.771,197.775 99.602,197.634 100.455 C 197.493 101.309,197.227 102.100,197.043 102.213 C 196.860 102.327,196.709 102.812,196.709 103.291 C 196.709 103.770,196.560 104.254,196.378 104.366 C 196.196 104.479,195.933 105.394,195.795 106.399 C 195.657 107.404,195.427 108.227,195.285 108.227 C 195.055 108.227,194.522 110.100,193.909 113.071 C 193.795 113.624,193.555 114.077,193.377 114.077 C 193.199 114.077,193.053 114.488,193.053 114.991 C 193.053 115.494,193.218 115.905,193.419 115.905 C 193.620 115.905,193.784 116.316,193.784 116.819 C 193.784 117.322,193.949 117.733,194.150 117.733 C 194.351 117.733,194.516 118.144,194.516 118.647 C 194.516 119.150,194.666 119.561,194.849 119.561 C 195.033 119.561,195.105 120.055,195.010 120.658 C 194.915 121.261,194.993 121.755,195.183 121.755 C 195.374 121.755,195.640 122.495,195.776 123.400 C 195.912 124.305,196.177 125.046,196.366 125.046 C 196.555 125.046,196.709 125.530,196.709 126.121 C 196.709 126.712,196.858 127.288,197.041 127.401 C 197.223 127.514,197.485 128.428,197.623 129.433 C 197.762 130.438,198.024 131.353,198.206 131.465 C 198.388 131.578,198.537 132.082,198.537 132.584 C 198.537 133.087,198.681 133.410,198.857 133.301 C 199.032 133.193,199.287 134.088,199.423 135.290 C 199.559 136.493,199.827 137.477,200.018 137.477 C 200.209 137.477,200.366 137.888,200.366 138.391 C 200.366 138.894,200.489 139.305,200.640 139.305 C 200.791 139.305,200.946 139.676,200.984 140.128 C 201.124 141.777,201.553 143.327,201.870 143.327 C 202.048 143.327,202.194 143.739,202.194 144.241 C 202.194 144.744,202.336 145.155,202.509 145.155 C 202.682 145.155,202.749 145.547,202.657 146.027 C 202.565 146.506,202.671 147.009,202.891 147.145 C 203.111 147.281,203.291 147.794,203.291 148.285 C 203.291 148.776,203.455 149.177,203.656 149.177 C 203.857 149.177,204.022 149.579,204.022 150.070 C 204.022 150.561,204.171 151.054,204.353 151.167 C 204.535 151.280,204.599 151.701,204.493 152.103 C 204.387 152.511,204.482 152.834,204.711 152.834 C 204.935 152.834,205.119 153.327,205.119 153.931 C 205.119 154.534,205.293 155.027,205.506 155.027 C 205.719 155.027,205.789 155.196,205.662 155.402 C 205.307 155.976,206.327 157.973,206.947 157.917 C 207.249 157.890,207.578 157.905,207.678 157.949 C 207.843 158.022,211.679 158.722,214.991 159.284 C 215.695 159.404,216.480 159.670,216.736 159.876 C 217.401 160.410,217.782 159.870,217.293 159.086 C 217.066 158.723,216.765 157.661,216.625 156.726 C 216.485 155.792,216.243 155.027,216.088 155.027 C 215.932 155.027,215.718 154.575,215.612 154.022 C 215.256 152.164,214.578 149.731,214.242 149.102 C 214.058 148.759,213.801 147.809,213.670 146.991 C 213.539 146.174,213.289 145.416,213.115 145.309 C 212.940 145.201,212.797 144.720,212.797 144.241 C 212.797 143.762,212.642 143.275,212.453 143.157 C 212.263 143.040,211.997 142.206,211.862 141.303 C 211.727 140.401,211.486 139.582,211.327 139.483 C 211.168 139.385,210.924 138.482,210.786 137.477 C 210.648 136.471,210.404 135.649,210.245 135.649 C 210.085 135.649,209.868 135.197,209.762 134.644 C 209.455 133.043,208.741 130.412,208.397 129.616 C 207.702 128.009,206.947 125.336,206.947 124.484 C 206.947 123.989,206.798 123.583,206.616 123.583 C 206.433 123.583,206.171 122.761,206.033 121.755 C 205.895 120.750,205.632 119.927,205.450 119.927 C 205.268 119.927,205.119 119.525,205.119 119.034 C 205.119 118.544,204.970 118.050,204.787 117.937 C 204.605 117.824,204.343 116.910,204.205 115.905 C 204.066 114.899,203.804 114.077,203.622 114.077 C 203.440 114.077,203.291 113.803,203.291 113.469 C 203.291 112.745,202.248 109.037,201.795 108.151 C 201.620 107.808,201.369 106.858,201.239 106.041 C 201.108 105.223,200.858 104.466,200.683 104.358 C 200.509 104.250,200.366 103.793,200.366 103.342 C 200.366 102.892,200.216 102.367,200.032 102.176 C 199.849 101.984,199.558 101.101,199.387 100.211 C 199.095 98.701,198.464 97.937,198.065 98.610 M206.947 159.874 C 206.947 160.619,208.127 164.304,208.439 164.534 C 208.575 164.634,208.804 165.580,208.948 166.636 C 209.092 167.691,209.358 168.647,209.541 168.760 C 209.723 168.872,209.872 169.366,209.872 169.857 C 209.872 170.348,210.021 170.750,210.203 170.750 C 210.386 170.750,210.454 171.060,210.354 171.440 C 210.255 171.819,210.353 172.240,210.571 172.375 C 210.790 172.510,210.969 173.013,210.969 173.492 C 210.969 173.971,211.133 174.464,211.335 174.589 C 211.536 174.713,211.700 175.207,211.700 175.686 C 211.700 176.165,211.849 176.649,212.031 176.761 C 212.214 176.874,212.277 177.295,212.172 177.697 C 212.065 178.105,212.161 178.428,212.389 178.428 C 212.613 178.428,212.797 178.829,212.797 179.320 C 212.797 179.811,212.946 180.305,213.128 180.418 C 213.311 180.530,213.573 181.445,213.711 182.450 C 213.849 183.455,214.096 184.278,214.260 184.278 C 214.423 184.278,214.670 185.100,214.808 186.106 C 214.946 187.111,215.208 188.026,215.391 188.138 C 215.573 188.251,215.722 188.745,215.722 189.235 C 215.722 189.726,215.868 190.128,216.046 190.128 C 216.224 190.128,216.487 190.904,216.629 191.852 C 216.771 192.800,217.106 193.888,217.374 194.270 C 217.642 194.652,217.773 195.193,217.666 195.472 C 217.559 195.750,217.639 195.978,217.842 195.978 C 218.046 195.978,218.326 196.801,218.464 197.806 C 218.603 198.812,218.847 199.634,219.007 199.634 C 219.281 199.634,219.730 201.615,219.772 203.009 C 219.782 203.357,219.945 203.737,220.133 203.854 C 220.321 203.970,220.475 204.384,220.475 204.775 C 220.475 205.165,220.617 205.484,220.790 205.484 C 220.963 205.484,221.206 206.336,221.329 207.376 C 221.452 208.416,221.722 209.436,221.928 209.643 C 222.135 209.849,222.303 210.336,222.303 210.725 C 222.303 211.514,223.598 212.797,224.394 212.797 C 224.678 212.797,225.795 213.661,226.875 214.717 C 227.955 215.772,229.764 217.459,230.894 218.464 C 232.023 219.470,233.556 220.833,234.298 221.494 C 236.959 223.860,238.391 225.308,238.391 225.631 C 238.391 225.824,260.479 225.960,291.805 225.960 L 345.220 225.960 344.973 224.497 C 344.808 223.523,344.861 223.035,345.130 223.035 C 345.554 223.035,345.299 221.340,344.772 220.658 C 344.617 220.457,344.374 219.676,344.233 218.921 C 344.092 218.167,343.831 217.550,343.652 217.550 C 343.473 217.550,343.327 217.139,343.327 216.636 C 343.327 216.133,343.177 215.722,342.994 215.722 C 342.810 215.722,342.549 215.064,342.413 214.260 C 342.277 213.455,342.016 212.797,341.833 212.797 C 341.649 212.797,341.499 212.386,341.499 211.883 C 341.499 211.380,341.349 210.969,341.166 210.969 C 340.982 210.969,340.721 210.311,340.585 209.506 C 340.449 208.702,340.188 208.044,340.004 208.044 C 339.821 208.044,339.671 207.671,339.671 207.216 C 339.671 206.760,339.351 205.791,338.960 205.062 C 338.570 204.333,338.350 203.636,338.473 203.514 C 338.596 203.391,338.523 203.291,338.311 203.291 C 338.099 203.291,337.815 202.554,337.680 201.654 C 337.545 200.754,337.298 199.932,337.131 199.829 C 336.964 199.726,336.722 199.223,336.594 198.711 C 336.465 198.200,335.928 196.841,335.401 195.692 C 334.873 194.542,334.472 193.339,334.510 193.018 C 334.548 192.696,334.328 192.225,334.021 191.971 C 333.714 191.716,333.543 191.379,333.640 191.221 C 333.737 191.064,333.572 190.466,333.273 189.892 C 332.973 189.318,332.727 188.640,332.726 188.386 C 332.725 188.132,332.580 187.639,332.403 187.289 C 331.546 185.594,330.896 183.817,330.896 183.169 C 330.896 182.773,330.731 182.450,330.530 182.450 C 330.329 182.450,330.164 182.162,330.162 181.810 C 330.161 181.458,329.914 180.699,329.614 180.123 C 329.313 179.547,329.068 178.765,329.068 178.386 C 329.068 178.007,328.918 177.697,328.734 177.697 C 328.551 177.697,328.289 177.038,328.154 176.234 C 328.018 175.430,327.771 174.771,327.605 174.771 C 327.439 174.771,327.193 174.114,327.057 173.311 C 326.921 172.508,326.660 171.757,326.476 171.644 C 326.293 171.530,326.143 171.109,326.143 170.706 C 326.143 170.304,325.978 170.077,325.777 170.201 C 325.567 170.331,325.410 169.991,325.409 169.400 C 325.408 168.835,325.161 167.902,324.861 167.326 C 324.560 166.750,324.314 166.050,324.314 165.772 C 324.314 165.493,324.150 165.265,323.949 165.265 C 323.748 165.265,323.583 164.863,323.583 164.373 C 323.583 163.882,323.426 163.383,323.234 163.264 C 323.041 163.145,322.974 162.813,323.084 162.526 C 323.433 161.618,322.657 161.603,268.848 161.514 C 227.251 161.444,216.028 161.330,215.667 160.969 C 215.416 160.718,214.700 160.512,214.077 160.512 C 213.453 160.512,212.787 160.359,212.596 160.173 C 211.920 159.513,206.947 159.250,206.947 159.874 M78.611 161.021 C 78.611 161.301,78.201 161.632,77.700 161.758 C 76.979 161.939,76.741 162.290,76.556 163.443 C 76.428 164.244,76.180 164.899,76.004 164.899 C 75.829 164.899,75.686 165.219,75.686 165.609 C 75.686 165.999,75.518 166.422,75.314 166.548 C 75.110 166.675,75.030 166.920,75.137 167.093 C 75.244 167.267,75.165 167.512,74.960 167.638 C 74.756 167.764,74.589 168.269,74.589 168.760 C 74.589 169.251,74.424 169.653,74.223 169.653 C 74.022 169.653,73.857 169.881,73.857 170.159 C 73.857 170.438,73.612 171.137,73.311 171.713 C 73.011 172.289,72.764 173.131,72.763 173.583 C 72.762 174.036,72.578 174.406,72.356 174.406 C 72.133 174.406,72.046 174.653,72.161 174.954 C 72.277 175.256,72.213 175.503,72.018 175.503 C 71.823 175.503,71.664 175.914,71.664 176.417 C 71.664 176.920,71.499 177.331,71.298 177.331 C 71.097 177.331,70.932 177.641,70.932 178.020 C 70.932 178.400,70.687 179.181,70.386 179.757 C 70.086 180.333,69.839 181.092,69.838 181.444 C 69.836 181.796,69.661 182.084,69.448 182.084 C 69.235 182.084,69.160 182.244,69.281 182.439 C 69.401 182.635,69.263 183.170,68.972 183.628 C 68.682 184.086,68.333 184.995,68.197 185.649 C 68.061 186.303,67.812 186.837,67.645 186.837 C 67.477 186.837,67.229 187.495,67.094 188.298 C 66.958 189.101,66.697 189.851,66.513 189.965 C 66.329 190.078,66.179 190.490,66.179 190.881 C 66.179 191.271,66.029 191.590,65.846 191.590 C 65.662 191.590,65.401 192.248,65.265 193.051 C 65.130 193.854,64.883 194.596,64.717 194.698 C 64.551 194.801,64.304 195.542,64.168 196.346 C 64.032 197.149,63.771 197.806,63.588 197.806 C 63.404 197.806,63.254 198.126,63.254 198.516 C 63.254 198.906,63.104 199.318,62.920 199.432 C 62.737 199.545,62.475 200.295,62.340 201.099 C 62.204 201.902,61.943 202.559,61.759 202.559 C 61.576 202.559,61.426 202.879,61.426 203.269 C 61.426 203.659,61.261 204.080,61.060 204.205 C 60.859 204.329,60.689 204.791,60.682 205.232 C 60.675 205.672,60.352 206.691,59.963 207.495 C 59.575 208.300,59.251 209.420,59.245 209.985 C 59.237 210.574,59.076 210.916,58.867 210.786 C 58.659 210.658,58.501 210.965,58.501 211.496 C 58.501 212.010,58.338 212.431,58.140 212.431 C 57.941 212.431,57.673 213.090,57.544 213.894 C 57.416 214.698,57.167 215.356,56.992 215.356 C 56.816 215.356,56.673 215.584,56.673 215.863 C 56.673 216.142,56.427 216.841,56.127 217.417 C 55.826 217.993,55.579 218.821,55.578 219.257 C 55.577 219.692,55.421 220.104,55.233 220.171 C 54.930 220.278,54.597 221.563,54.509 222.965 C 54.493 223.228,54.302 223.334,54.085 223.200 C 53.833 223.044,53.734 223.304,53.811 223.927 L 53.931 224.897 106.187 224.873 C 161.215 224.847,159.415 224.905,159.415 223.173 C 159.415 222.695,159.561 222.303,159.739 222.303 C 159.917 222.303,160.178 221.539,160.318 220.604 C 160.458 219.670,160.700 218.642,160.856 218.319 C 161.344 217.311,162.340 214.006,162.340 213.395 C 162.340 213.074,162.744 212.710,163.237 212.586 C 163.965 212.403,164.179 212.058,164.375 210.751 C 164.508 209.865,164.763 209.141,164.941 209.141 C 165.119 209.141,165.265 208.739,165.265 208.248 C 165.265 207.757,165.425 207.257,165.620 207.136 C 165.815 207.016,166.083 206.101,166.216 205.104 C 166.348 204.107,166.600 203.291,166.775 203.291 C 166.950 203.291,167.093 202.982,167.093 202.604 C 167.093 202.226,167.340 201.327,167.642 200.605 C 167.943 199.883,168.190 198.876,168.190 198.366 C 168.190 197.857,168.339 197.441,168.521 197.441 C 168.704 197.441,168.966 196.618,169.104 195.612 C 169.242 194.607,169.505 193.784,169.687 193.784 C 169.869 193.784,170.018 193.300,170.018 192.709 C 170.018 192.118,170.173 191.538,170.363 191.421 C 170.552 191.304,170.818 190.471,170.953 189.571 C 171.088 188.671,171.306 187.934,171.437 187.934 C 171.568 187.934,171.991 186.609,172.377 184.989 C 172.763 183.369,173.208 181.964,173.366 181.866 C 173.524 181.768,173.762 180.873,173.894 179.875 C 174.026 178.878,174.278 178.062,174.453 178.062 C 174.628 178.062,174.771 177.578,174.771 176.987 C 174.771 176.395,174.927 175.816,175.116 175.699 C 175.305 175.582,175.571 174.749,175.706 173.849 C 175.841 172.949,176.079 172.212,176.234 172.212 C 176.389 172.212,176.610 171.760,176.724 171.207 C 177.343 168.211,177.871 166.362,178.108 166.362 C 178.255 166.362,178.488 165.457,178.626 164.351 C 178.765 163.245,179.023 162.340,179.201 162.340 C 179.379 162.340,179.525 161.929,179.525 161.426 L 179.525 160.512 129.068 160.512 C 86.208 160.512,78.611 160.588,78.611 161.021 M200.613 303.382 C 46.930 303.463,24.376 303.542,23.912 304.007 C 23.619 304.300,23.137 304.446,22.841 304.333 C 22.516 304.208,22.303 304.342,22.303 304.672 C 22.303 304.972,22.058 305.689,21.757 306.265 C 21.457 306.841,21.210 307.793,21.209 308.379 C 21.208 308.966,21.091 309.330,20.949 309.188 C 20.634 308.873,19.427 311.753,19.399 312.888 C 19.388 313.341,19.216 313.711,19.017 313.711 C 18.818 313.711,18.551 314.369,18.422 315.174 C 18.293 315.978,18.045 316.636,17.869 316.636 C 17.694 316.636,17.550 317.048,17.550 317.550 C 17.550 318.053,17.388 318.464,17.189 318.464 C 16.990 318.464,16.722 319.122,16.594 319.927 C 16.465 320.731,16.251 321.389,16.119 321.389 C 15.986 321.389,15.850 321.757,15.816 322.207 C 15.782 322.656,15.583 323.081,15.372 323.151 C 15.162 323.222,14.887 323.923,14.761 324.711 C 14.635 325.498,14.410 326.143,14.260 326.143 C 14.111 326.143,13.989 326.431,13.988 326.782 C 13.987 327.788,13.479 329.068,13.081 329.068 C 12.882 329.068,12.812 329.310,12.925 329.606 C 13.039 329.901,12.892 330.383,12.599 330.676 C 12.306 330.969,12.066 331.484,12.066 331.820 C 12.066 332.393,11.346 334.273,10.560 335.755 C 10.369 336.115,10.310 336.568,10.430 336.761 C 10.549 336.954,10.455 337.112,10.220 337.112 C 9.986 337.112,9.884 337.346,9.994 337.633 C 10.104 337.920,9.965 338.345,9.685 338.577 C 9.406 338.809,9.068 339.725,8.935 340.611 C 8.802 341.498,8.547 342.133,8.369 342.022 C 8.190 341.912,8.044 342.151,8.044 342.553 C 8.044 342.955,7.894 343.377,7.710 343.490 C 7.526 343.604,7.265 344.354,7.129 345.157 C 6.994 345.961,6.725 346.618,6.533 346.618 C 6.341 346.618,6.225 346.824,6.276 347.075 C 6.327 347.326,6.162 347.906,5.910 348.362 C 5.657 348.819,5.550 349.354,5.672 349.551 C 5.794 349.747,5.719 349.909,5.506 349.909 C 5.293 349.909,5.119 350.137,5.119 350.415 C 5.119 350.694,4.873 351.393,4.573 351.969 C 4.272 352.545,4.025 353.387,4.024 353.839 C 4.023 354.292,3.857 354.662,3.656 354.662 C 3.455 354.662,3.291 354.890,3.291 355.168 C 3.291 355.447,3.045 356.146,2.744 356.722 C 2.444 357.298,2.197 358.232,2.196 358.797 C 2.195 359.362,2.059 359.740,1.894 359.638 C 1.555 359.429,0.520 362.184,0.158 364.260 L -0.081 365.631 58.196 365.631 L 116.474 365.631 117.104 363.510 C 117.450 362.344,117.733 361.120,117.733 360.790 C 117.733 360.459,117.883 360.097,118.067 359.983 C 118.251 359.870,118.516 359.078,118.658 358.225 C 118.799 357.371,119.014 356.508,119.136 356.307 C 119.258 356.106,119.406 355.625,119.467 355.239 C 119.527 354.853,119.718 354.359,119.893 354.142 C 120.067 353.925,120.325 353.049,120.466 352.196 C 120.607 351.342,120.872 350.551,121.056 350.437 C 121.239 350.324,121.389 349.839,121.389 349.360 C 121.389 348.881,121.539 348.397,121.721 348.284 C 121.903 348.172,122.165 347.257,122.304 346.252 C 122.442 345.247,122.694 344.424,122.864 344.424 C 123.033 344.424,123.180 344.136,123.190 343.784 C 123.232 342.322,123.686 340.402,123.989 340.402 C 124.168 340.402,124.314 339.991,124.314 339.488 C 124.314 338.985,124.464 338.574,124.646 338.574 C 124.828 338.574,125.090 337.752,125.228 336.746 C 125.367 335.741,125.629 334.826,125.811 334.714 C 125.993 334.601,126.143 334.117,126.143 333.638 C 126.143 333.159,126.298 332.671,126.487 332.554 C 126.677 332.437,126.942 331.605,127.077 330.704 C 127.212 329.804,127.449 329.068,127.605 329.068 C 127.760 329.068,128.000 328.163,128.138 327.057 C 128.276 325.951,128.542 325.046,128.728 325.046 C 128.915 325.046,129.068 324.644,129.068 324.153 C 129.068 323.662,129.214 323.171,129.392 323.060 C 129.570 322.950,129.828 322.241,129.966 321.485 C 130.169 320.368,131.221 316.848,132.291 313.711 C 132.394 313.410,132.504 313.080,132.537 312.980 C 132.569 312.879,132.726 312.016,132.884 311.060 C 133.043 310.105,133.318 309.324,133.497 309.324 C 133.675 309.324,133.821 309.004,133.821 308.614 C 133.821 308.224,133.985 307.803,134.186 307.678 C 134.388 307.554,134.552 306.968,134.552 306.377 L 134.552 305.302 192.738 305.302 C 256.894 305.302,251.876 305.123,251.908 307.404 C 251.914 307.856,252.069 308.227,252.251 308.227 C 252.433 308.227,252.695 309.049,252.834 310.054 C 252.972 311.060,253.234 311.974,253.416 312.087 C 253.599 312.200,253.748 312.684,253.748 313.163 C 253.748 313.642,253.903 314.129,254.092 314.247 C 254.282 314.364,254.547 315.196,254.682 316.096 C 254.817 316.997,255.073 317.733,255.252 317.733 C 255.430 317.733,255.576 318.299,255.576 318.991 C 255.576 319.683,255.733 320.347,255.926 320.465 C 256.118 320.584,256.189 320.906,256.083 321.181 C 255.978 321.456,256.067 321.790,256.282 321.922 C 256.497 322.055,256.673 322.483,256.673 322.873 C 256.673 323.264,256.816 323.583,256.990 323.583 C 257.165 323.583,257.405 324.200,257.525 324.954 C 257.871 327.147,257.977 327.569,258.247 327.838 C 258.386 327.978,258.501 328.477,258.501 328.946 C 258.501 329.415,258.662 329.799,258.860 329.799 C 259.057 329.799,259.321 330.210,259.448 330.713 C 259.574 331.216,259.783 331.629,259.912 331.631 C 260.041 331.634,260.461 332.292,260.845 333.094 C 261.229 333.896,261.682 334.552,261.850 334.552 C 262.019 334.552,262.157 334.786,262.157 335.072 C 262.157 335.359,262.541 336.058,263.009 336.626 C 263.755 337.531,264.131 338.229,264.406 339.218 C 264.448 339.366,264.699 339.706,264.965 339.971 C 265.230 340.237,265.448 340.689,265.448 340.977 C 265.448 341.264,265.612 341.499,265.814 341.499 C 266.015 341.499,266.179 341.756,266.179 342.069 C 266.179 342.383,266.330 342.546,266.515 342.432 C 266.700 342.317,266.960 342.719,267.093 343.324 C 267.225 343.929,267.486 344.424,267.671 344.424 C 267.856 344.424,268.007 344.634,268.007 344.891 C 268.007 345.148,268.343 345.646,268.754 345.998 C 269.165 346.350,269.402 346.798,269.281 346.993 C 269.160 347.189,269.217 347.349,269.409 347.349 C 269.600 347.349,269.859 347.761,269.986 348.263 C 270.112 348.766,270.376 349.177,270.574 349.177 C 270.771 349.177,270.932 349.493,270.932 349.878 C 270.932 350.264,271.056 350.634,271.207 350.701 C 271.357 350.768,271.745 351.316,272.068 351.920 C 273.573 354.729,274.073 355.579,274.497 356.042 C 274.749 356.317,274.954 356.777,274.954 357.065 C 274.954 357.352,275.119 357.587,275.320 357.587 C 275.521 357.587,275.686 357.834,275.686 358.135 C 275.686 358.437,275.847 358.684,276.044 358.684 C 276.241 358.684,276.506 359.095,276.632 359.598 C 276.758 360.101,276.991 360.512,277.148 360.512 C 277.306 360.512,277.538 360.923,277.664 361.426 C 277.790 361.929,278.055 362.340,278.252 362.340 C 278.449 362.340,278.611 362.587,278.611 362.888 C 278.611 363.190,278.739 363.437,278.896 363.437 C 279.053 363.437,279.368 363.931,279.596 364.534 L 280.010 365.631 339.869 365.631 L 399.728 365.631 399.490 364.142 C 399.359 363.324,398.990 362.254,398.670 361.766 C 398.350 361.277,398.209 360.878,398.357 360.878 C 398.506 360.878,398.457 360.672,398.249 360.420 C 398.042 360.169,397.756 359.346,397.615 358.592 C 397.475 357.838,397.213 357.221,397.034 357.221 C 396.856 357.221,396.709 356.902,396.709 356.512 C 396.709 356.121,396.559 355.709,396.376 355.596 C 396.192 355.482,395.931 354.732,395.795 353.929 C 395.659 353.125,395.398 352.468,395.215 352.468 C 395.031 352.468,394.880 352.098,394.879 351.645 C 394.878 351.193,394.631 350.351,394.330 349.775 C 394.030 349.199,393.784 348.490,393.784 348.200 C 393.784 347.909,393.620 347.773,393.419 347.898 C 393.208 348.028,393.052 347.688,393.051 347.097 C 393.050 346.532,392.803 345.598,392.502 345.022 C 392.202 344.446,391.956 343.747,391.956 343.468 C 391.956 343.190,391.792 342.962,391.590 342.962 C 391.389 342.962,391.224 342.591,391.223 342.139 C 391.221 341.686,390.981 340.857,390.688 340.295 C 390.395 339.734,390.048 338.704,389.917 338.006 C 389.787 337.309,389.534 336.648,389.355 336.537 C 389.177 336.427,389.031 336.008,389.031 335.606 C 389.031 335.204,388.885 334.965,388.706 335.075 C 388.528 335.186,388.272 334.541,388.137 333.643 C 388.002 332.745,387.737 331.914,387.547 331.797 C 387.358 331.680,387.203 331.255,387.203 330.853 C 387.203 330.450,387.054 330.214,386.872 330.326 C 386.689 330.439,386.427 329.708,386.289 328.702 C 386.151 327.697,385.903 326.874,385.738 326.874 C 385.574 326.874,385.328 326.216,385.192 325.411 C 385.056 324.607,384.795 323.949,384.611 323.949 C 384.428 323.949,384.278 323.629,384.278 323.239 C 384.278 322.849,384.128 322.437,383.944 322.323 C 383.760 322.210,383.499 321.460,383.363 320.656 C 383.228 319.853,382.967 319.196,382.783 319.196 C 382.600 319.196,382.450 318.784,382.450 318.282 C 382.450 317.779,382.300 317.367,382.116 317.367 C 381.933 317.367,381.672 316.709,381.536 315.905 C 381.400 315.101,381.160 314.442,381.002 314.442 C 380.844 314.442,380.610 313.784,380.481 312.980 C 380.353 312.176,380.085 311.517,379.886 311.517 C 379.687 311.517,379.525 311.106,379.525 310.603 C 379.525 310.101,379.381 309.689,379.206 309.689 C 379.030 309.689,378.782 309.031,378.653 308.227 C 378.524 307.422,378.257 306.764,378.058 306.764 C 377.859 306.764,377.689 306.394,377.680 305.941 C 377.671 305.489,377.465 304.707,377.223 304.205 L 376.782 303.291 200.613 303.382 " stroke="none" fill="#14147c" fill-rule="evenodd"></path><path id="path3" d="M198.028 97.836 C 197.906 98.154,197.806 98.448,197.806 98.489 C 197.806 98.530,198.135 98.564,198.537 98.564 C 198.940 98.564,199.269 98.530,199.269 98.489 C 199.269 98.108,198.764 97.258,198.537 97.258 C 198.379 97.258,198.150 97.518,198.028 97.836 M197.441 99.911 C 197.441 99.963,197.279 100.569,197.081 101.257 C 196.884 101.946,196.863 102.357,197.034 102.169 C 197.408 101.761,197.901 99.817,197.630 99.817 C 197.526 99.817,197.441 99.859,197.441 99.911 M199.494 100.731 C 199.623 101.335,199.891 101.993,200.088 102.194 C 200.324 102.434,200.356 102.246,200.180 101.645 C 199.747 100.169,199.224 99.473,199.494 100.731 M194.186 110.640 C 193.976 111.402,193.870 112.091,193.950 112.171 C 194.031 112.251,194.269 111.694,194.479 110.932 C 194.689 110.171,194.796 109.482,194.715 109.401 C 194.635 109.321,194.397 109.878,194.186 110.640 M204.413 116.889 C 204.399 117.329,204.552 117.792,204.753 117.916 C 205.186 118.183,205.186 117.825,204.753 116.819 C 204.450 116.114,204.438 116.116,204.413 116.889 M207.174 125.960 C 207.305 126.563,207.556 127.303,207.733 127.605 C 207.938 127.956,207.969 127.759,207.817 127.057 C 207.686 126.453,207.435 125.713,207.258 125.411 C 207.053 125.060,207.022 125.258,207.174 125.960 M211.900 141.683 C 212.043 142.286,212.301 142.932,212.472 143.120 C 212.644 143.307,212.628 142.915,212.436 142.247 C 211.990 140.693,211.558 140.237,211.900 141.683 M214.852 151.188 C 214.983 151.792,215.234 152.532,215.411 152.834 C 215.616 153.185,215.647 152.987,215.495 152.285 C 215.365 151.682,215.113 150.941,214.936 150.640 C 214.731 150.289,214.701 150.486,214.852 151.188 M216.740 157.580 C 216.830 158.192,217.055 158.787,217.241 158.902 C 217.439 159.024,217.478 158.679,217.335 158.075 C 216.990 156.613,216.544 156.242,216.740 157.580 M206.856 157.861 C 204.973 158.288,206.659 159.288,209.782 159.594 C 211.241 159.738,212.526 160.003,212.637 160.184 C 212.749 160.364,213.373 160.512,214.025 160.512 C 214.677 160.512,215.416 160.718,215.667 160.969 C 216.029 161.330,227.162 161.427,268.848 161.431 L 321.572 161.437 270.084 161.339 L 218.595 161.241 217.433 160.369 C 216.794 159.890,215.695 159.401,214.991 159.282 C 209.457 158.352,208.181 158.109,207.861 157.925 C 207.660 157.810,207.207 157.781,206.856 157.861 M76.811 161.374 C 76.791 161.848,76.957 161.986,77.361 161.831 C 77.679 161.709,78.090 161.609,78.275 161.609 C 78.460 161.609,78.611 161.438,78.611 161.230 C 78.611 160.970,78.391 160.969,77.909 161.227 C 77.399 161.500,77.157 161.479,77.024 161.149 C 76.921 160.895,76.827 160.994,76.811 161.374 M162.753 212.760 C 162.477 212.935,162.312 213.227,162.387 213.410 C 162.462 213.592,162.811 213.447,163.163 213.087 C 163.834 212.399,163.607 212.219,162.753 212.760 M225.589 214.071 C 226.268 214.772,226.896 215.273,226.985 215.185 C 227.183 214.987,225.029 212.797,224.636 212.797 C 224.481 212.797,224.910 213.370,225.589 214.071 M161.645 215.777 C 161.160 217.167,161.141 217.442,161.562 216.984 C 161.912 216.602,162.447 214.625,162.200 214.625 C 162.115 214.625,161.865 215.143,161.645 215.777 M228.850 216.924 C 229.132 217.284,230.037 218.093,230.861 218.722 L 232.358 219.866 231.079 218.612 C 229.365 216.932,228.110 215.982,228.850 216.924 M233.272 221.024 C 233.745 221.527,234.275 221.938,234.452 221.938 C 234.628 221.938,234.329 221.527,233.786 221.024 C 233.244 220.521,232.713 220.110,232.607 220.110 C 232.501 220.110,232.800 220.521,233.272 221.024 M235.101 222.376 C 235.101 222.465,235.841 223.311,236.746 224.255 C 237.651 225.200,238.391 225.842,238.391 225.682 C 238.391 225.522,237.935 224.902,237.378 224.305 C 236.260 223.106,235.101 222.124,235.101 222.376 M23.693 303.446 C 23.834 303.814,23.714 303.897,23.281 303.731 C 22.944 303.602,22.669 303.646,22.669 303.829 C 22.669 304.465,23.345 304.574,23.893 304.025 C 24.383 303.535,44.110 303.463,200.614 303.384 C 297.507 303.334,358.108 303.252,335.283 303.201 C 168.970 302.829,23.500 302.943,23.693 303.446 M268.466 346.266 C 268.713 346.661,269.034 346.984,269.181 346.984 C 269.623 346.984,269.086 345.958,268.533 345.746 C 268.108 345.583,268.097 345.674,268.466 346.266 " stroke="none" fill="#1a1b74" fill-rule="evenodd"></path><path id="path4" d="M151.463 92.779 C 178.158 92.831,221.842 92.831,248.537 92.779 C 275.233 92.727,253.391 92.685,200.000 92.685 C 146.609 92.685,124.767 92.727,151.463 92.779 M217.579 159.644 C 217.563 160.072,217.824 160.648,218.159 160.924 C 218.702 161.373,218.727 161.348,218.391 160.695 C 218.184 160.293,217.923 159.717,217.811 159.415 C 217.672 159.038,217.599 159.110,217.579 159.644 M230.382 218.739 C 230.468 218.789,231.195 219.406,231.997 220.110 L 233.455 221.389 232.195 220.018 C 231.502 219.264,230.775 218.647,230.580 218.647 C 230.385 218.647,230.296 218.688,230.382 218.739 M235.466 223.149 C 235.466 223.212,236.001 223.747,236.654 224.337 L 237.843 225.411 236.769 224.223 C 235.768 223.115,235.466 222.867,235.466 223.149 M82.570 225.137 C 96.712 225.190,119.747 225.190,133.758 225.137 C 147.769 225.084,136.197 225.041,108.044 225.041 C 79.890 225.041,68.427 225.084,82.570 225.137 M237.972 226.052 C 238.123 226.204,262.507 226.286,292.158 226.235 L 346.069 226.143 291.883 225.960 C 262.080 225.859,237.820 225.901,237.972 226.052 M200.183 302.742 L 24.314 302.926 200.457 303.017 C 317.702 303.077,376.600 302.986,376.600 302.742 C 376.600 302.541,376.476 302.417,376.325 302.467 C 376.175 302.517,296.910 302.641,200.183 302.742 " stroke="none" fill="#4b3b64" fill-rule="evenodd"></path></g></svg>